<svg width="61" height="46" viewBox="0 0 61 46" fill="none" xmlns="http://www.w3.org/2000/svg">
<path d="M29.6913 11.9336L10.1675 27.5271V44.357C10.1675 44.7927 10.346 45.2106 10.6637 45.5188C10.9815 45.8269 11.4124 46 11.8618 46L23.7283 45.9702C24.1762 45.968 24.605 45.794 24.9209 45.4861C25.2368 45.1782 25.4142 44.7615 25.4142 44.3272V34.4987C25.4142 34.063 25.5927 33.645 25.9104 33.3369C26.2282 33.0288 26.6591 32.8557 27.1085 32.8557H33.8857C34.3351 32.8557 34.7661 33.0288 35.0838 33.3369C35.4015 33.645 35.5801 34.063 35.5801 34.4987V44.32C35.5794 44.5362 35.6227 44.7504 35.7075 44.9503C35.7923 45.1503 35.917 45.332 36.0744 45.4851C36.2318 45.6382 36.4188 45.7597 36.6248 45.8426C36.8307 45.9255 37.0514 45.9682 37.2744 45.9682L49.1367 46C49.586 46 50.017 45.8269 50.3347 45.5188C50.6525 45.2106 50.831 44.7927 50.831 44.357V27.5158L31.3114 11.9336C31.082 11.7542 30.7961 11.6564 30.5013 11.6564C30.2066 11.6564 29.9207 11.7542 29.6913 11.9336ZM60.5309 22.5322L51.6782 15.4559V1.23228C51.6782 0.905459 51.5443 0.592024 51.306 0.360927C51.0677 0.129829 50.7444 0 50.4074 0H44.4773C44.1403 0 43.8171 0.129829 43.5788 0.360927C43.3405 0.592024 43.2066 0.905459 43.2066 1.23228V8.6886L33.7258 1.12446C32.816 0.398416 31.6743 0.00145136 30.4961 0.00145136C29.3178 0.00145136 28.1761 0.398416 27.2663 1.12446L0.46117 22.5322C0.332494 22.6354 0.226036 22.7621 0.147877 22.9051C0.0697188 23.0482 0.0213915 23.2048 0.00565705 23.3659C-0.0100774 23.5271 0.00708928 23.6897 0.0561763 23.8444C0.105263 23.9992 0.185308 24.143 0.291738 24.2677L2.99205 27.4511C3.09819 27.5763 3.22874 27.6799 3.37623 27.756C3.52373 27.8322 3.68526 27.8794 3.85159 27.895C4.01792 27.9105 4.18578 27.8941 4.34555 27.8467C4.50533 27.7992 4.65389 27.7217 4.78273 27.6185L29.6913 7.72332C29.9207 7.54394 30.2066 7.44613 30.5013 7.44613C30.7961 7.44613 31.082 7.54394 31.3114 7.72332L56.221 27.6185C56.3497 27.7217 56.498 27.7993 56.6575 27.8469C56.8171 27.8945 56.9848 27.9112 57.151 27.8959C57.3171 27.8807 57.4786 27.8338 57.6261 27.758C57.7736 27.6822 57.9043 27.579 58.0107 27.4542L60.711 24.2708C60.8173 24.1453 60.897 24.0008 60.9455 23.8454C60.994 23.69 61.0104 23.5268 60.9936 23.3652C60.9769 23.2037 60.9274 23.0469 60.848 22.904C60.7686 22.761 60.6609 22.6347 60.5309 22.5322Z" fill="white"/>
</svg>
